<svg xmlns="http://www.w3.org/2000/svg" width="24.004" height="24" viewBox="0 0 24.004 24">
  <g id="Order" transform="translate(-801.996 -11946)">
    <rect id="Rectangle_17657" data-name="Rectangle 17657" width="24" height="24" transform="translate(802 11946)" fill="none"/>
    <path id="Order_Icon" d="M22.009,12.557l1.97-8.668A1,1,0,0,0,23,2.667H6.635L6.253.8a1,1,0,0,0-.98-.8H1A1,1,0,0,0,0,1v.667a1,1,0,0,0,1,1H3.914L6.841,16.98a2.334,2.334,0,1,0,2.794.357h8.735a2.333,2.333,0,1,0,2.65-.434l.23-1.011a1,1,0,0,0-.975-1.222H9.09l-.273-1.333H21.034a1,1,0,0,0,.975-.779Z" transform="translate(801.996 11947.33)" fill="#406fc6"/>
  </g>
</svg>
