<svg xmlns="http://www.w3.org/2000/svg" width="24" height="24" viewBox="0 0 24 24">
  <g id="Product" transform="translate(-802 -11977)">
    <rect id="Rectangle_17658" data-name="Rectangle 17658" width="24" height="24" transform="translate(802 11977)" fill="none"/>
    <path id="Total_Product" d="M15.964,10.762a1.8,1.8,0,0,1-1.8,1.8h-3.4v-3.6h3.4A1.8,1.8,0,0,1,15.964,10.762Zm8.6,1.8a12,12,0,1,1-12-12,12,12,0,0,1,12,12Zm-6.2-1.8a4.2,4.2,0,0,0-4.2-4.2h-5.8v12h2.4v-3.6h3.4a4.2,4.2,0,0,0,4.2-4.2Z" transform="translate(801.437 11976.438)" fill="#fe9670"/>
  </g>
</svg>
