<svg xmlns="http://www.w3.org/2000/svg" width="24" height="24" viewBox="0 0 24 24">
  <g id="Sold_out_products" transform="translate(-802 -12012)">
    <rect id="Rectangle_17659" data-name="Rectangle 17659" width="24" height="24" transform="translate(802 12012)" fill="none"/>
    <g id="Group_9490" data-name="Group 9490" transform="translate(802.07 12012)">
      <g id="Group_9486" data-name="Group 9486" transform="translate(0 0)">
        <path id="Path_8724" data-name="Path 8724" d="M101,249.915c-.006-.085-.016-.171-.016-.256,0-2.248,0-4.5-.006-6.744a.35.35,0,0,1,.282-.4c1.468-.48,2.932-.973,4.4-1.461.272-.091.277-.087.277.192,0,2.264,0,4.527,0,6.791a.31.31,0,0,1-.254.348c-1.416.464-2.829.938-4.242,1.41-.1.034-.2.079-.3.119Z" transform="translate(-94.656 -225.915)" fill="#56d8f0"/>
        <path id="Path_8725" data-name="Path 8725" d="M206.837,249.9c-.652-.262-1.327-.456-1.991-.682q-1.274-.434-2.555-.849a.31.31,0,0,1-.254-.348c.007-2.264,0-4.527,0-6.791,0-.277.008-.283.278-.193q2.209.736,4.419,1.472c.164.054.261.118.26.32-.007,2.295,0,4.59-.005,6.885,0,.062-.01.124-.016.186Z" transform="translate(-189.39 -225.905)" fill="#56d8f0"/>
        <path id="Path_8726" data-name="Path 8726" d="M4.8,249.9c-.652-.262-1.328-.455-1.992-.682-.738-.253-1.481-.494-2.221-.743a.732.732,0,0,1-.582-.8q0-3.221,0-6.443c0-.284.006-.289.273-.2,1.474.491,2.946.985,4.421,1.471a.31.31,0,0,1,.263.342c-.008,2.28,0,4.561-.006,6.841,0,.07-.01.14-.016.21Z" transform="translate(0 -225.901)" fill="#56d8f0"/>
        <path id="Path_8727" data-name="Path 8727" d="M303.1,249.919c-.005-.085-.016-.171-.016-.256,0-2.249,0-4.5-.006-6.747a.351.351,0,0,1,.286-.4c1.469-.481,2.933-.974,4.4-1.462.267-.089.272-.085.272.2q0,3.21,0,6.419a.746.746,0,0,1-.6.829q-1.976.662-3.953,1.32c-.081.027-.159.064-.238.1Z" transform="translate(-284.104 -225.919)" fill="#56d8f0"/>
        <path id="Path_8728" data-name="Path 8728" d="M105.939,58.669q0,1.709,0,3.419c0,.316,0,.318-.292.222-1.466-.488-2.93-.98-4.4-1.461a.323.323,0,0,1-.267-.363c.007-2.295,0-4.59,0-6.885,0-.3.008-.306.283-.215,1.473.49,2.945.985,4.419,1.47a.309.309,0,0,1,.255.347c-.009,1.155,0,2.311,0,3.466" transform="translate(-94.661 -49.996)" fill="#56d8f0"/>
        <path id="Path_8729" data-name="Path 8729" d="M207.011,57.089c0,1.147,0,2.295,0,3.442a.3.3,0,0,1-.237.337c-1.482.487-2.962.984-4.442,1.476-.265.088-.277.079-.277-.2q0-3.466,0-6.931a.284.284,0,0,1,.225-.321c1.49-.49,2.976-.989,4.464-1.484.25-.083.266-.072.266.19q0,1.745,0,3.489" transform="translate(-189.407 -50.023)" fill="#56d8f0"/>
        <path id="Path_8730" data-name="Path 8730" d="M6.632,191.179c-.078-.023-.153-.042-.227-.067l-5.152-1.718c-.03-.01-.06-.019-.088-.031s-.1-.018-.108-.074.058-.062.1-.08.073-.026.11-.038q2.554-.852,5.107-1.706a.77.77,0,0,1,.521,0q2.54.855,5.084,1.7a.673.673,0,0,1,.111.038c.044.024.123.013.118.089,0,.056-.066.057-.107.074s-.074.025-.111.038l-5.107,1.7c-.081.027-.164.049-.248.074" transform="translate(-0.991 -175.688)" fill="#56d8f0"/>
        <path id="Path_8731" data-name="Path 8731" d="M208.824,191.127c-.073-.021-.141-.037-.207-.059q-2.587-.862-5.174-1.727c-.069-.023-.186-.017-.186-.107s.117-.084.185-.107q2.575-.862,5.15-1.722a.708.708,0,0,1,.477,0q2.563.861,5.128,1.714c.044.015.089.03.132.047s.083.026.069.075c-.007.023-.042.041-.068.054a.815.815,0,0,1-.109.041l-5.174,1.725c-.074.025-.149.043-.223.064" transform="translate(-190.534 -175.636)" fill="#56d8f0"/>
        <path id="Path_8732" data-name="Path 8732" d="M102.073,1.849c.043-.092.14-.091.216-.116q2.5-.835,4.993-1.668a1.073,1.073,0,0,1,.709-.01Q110.52.9,113.05,1.745c.061.021.144.019.174.1-.044.076-.128.079-.2.1q-2.574.86-5.147,1.72a.644.644,0,0,1-.432.008q-2.606-.874-5.215-1.741c-.056-.019-.124-.023-.159-.089" transform="translate(-95.683 0)" fill="#56d8f0"/>
      </g>
    </g>
  </g>
</svg>
